<?xml version="1.0" standalone="no"?>
<!DOCTYPE svg PUBLIC "-//W3C//DTD SVG 20010904//EN"
 "http://www.w3.org/TR/2001/REC-SVG-20010904/DTD/svg10.dtd">
<svg version="1.0" xmlns="http://www.w3.org/2000/svg"
 width="1601.000000pt" height="155.021245pt" viewBox="0 0 1601.000000 155.021245"
 preserveAspectRatio="xMidYMid meet">
<metadata>
Created by potrace 1.16, written by Peter Selinger 2001-2019
</metadata>
<g transform="translate(-16.000000,209.021245) scale(0.100000,-0.100000)"
fill="#000000" stroke="none">
<path d="M160 1965 l0 -125 429 0 430 0 3 47 c2 36 7 49 21 51 14 3 17 -5 17
-52 0 -31 5 -56 10 -56 6 0 10 28 10 65 l0 65 -31 0 c-17 0 -28 4 -24 10 3 6
22 10 41 10 l34 0 0 -75 c0 -43 4 -75 10 -75 6 0 10 35 10 85 l0 85 -50 0 -50
0 0 45 0 45 -430 0 -430 0 0 -125z"/>
<path d="M1450 1965 l0 -125 360 0 360 0 0 50 c0 43 3 50 20 50 18 0 20 -7 20
-55 0 -30 5 -55 10 -55 6 0 10 28 10 65 l0 65 -30 0 c-16 0 -30 5 -30 10 0 6
16 10 35 10 l35 0 0 -75 c0 -60 3 -75 15 -75 12 0 15 16 15 85 l0 85 -50 0
-50 0 0 45 0 45 -360 0 -360 0 0 -125z"/>
<path d="M2450 1965 l0 -125 435 0 435 0 0 51 c0 43 3 50 18 47 13 -2 18 -15
20 -56 4 -75 22 -64 22 13 l0 65 -30 0 c-16 0 -30 5 -30 10 0 6 16 10 35 10
l35 0 0 -75 c0 -43 4 -75 10 -75 6 0 10 35 10 85 l0 85 -44 0 -45 0 -3 43 -3
42 -432 3 -433 2 0 -125z"/>
<path d="M3600 1965 l0 -125 499 0 500 0 3 48 c3 39 6 47 23 47 19 0 20 -7 22
-107 l2 -108 -359 0 -360 0 0 -85 c0 -50 4 -85 10 -85 6 0 10 32 10 75 l0 75
360 0 360 0 0 130 0 130 -36 0 c-21 0 -33 4 -29 10 3 6 22 10 41 10 l34 0 0
-150 0 -150 -360 0 -360 0 0 -65 c0 -51 3 -65 15 -65 12 0 15 13 15 55 l0 55
354 0 355 0 3 90 c2 49 2 125 0 170 l-4 80 -49 0 -49 0 0 45 0 45 -500 0 -500
0 0 -125z"/>
<path d="M4887 2083 c-4 -3 -7 -60 -7 -125 l0 -118 365 0 365 0 0 50 c0 43 3
50 20 50 18 0 20 -7 20 -55 0 -30 5 -55 10 -55 6 0 10 28 10 65 l0 65 -30 0
c-16 0 -30 5 -30 10 0 6 16 10 35 10 l35 0 0 -75 c0 -60 3 -75 15 -75 12 0 15
16 15 85 l0 85 -50 0 -50 0 0 45 0 45 -358 0 c-197 0 -362 -3 -365 -7z"/>
<path d="M6467 2084 c-4 -4 -7 -61 -7 -126 l0 -118 220 0 220 0 0 50 c0 43 3
50 20 50 18 0 20 -7 20 -55 0 -30 5 -55 10 -55 6 0 10 28 10 65 l0 65 -30 0
c-16 0 -30 5 -30 10 0 6 16 10 35 10 l35 0 0 -75 c0 -60 3 -75 15 -75 12 0 15
16 15 85 l0 85 -49 0 -50 0 -3 43 -3 42 -211 3 c-115 1 -213 -1 -217 -4z"/>
<path d="M7467 2083 c-4 -3 -7 -60 -7 -125 l0 -118 220 0 220 0 0 50 c0 43 3
50 20 50 20 0 20 -7 20 -670 l0 -670 -115 0 -115 0 0 60 0 60 95 0 95 0 0 125
0 125 -145 0 -145 0 0 -125 c0 -118 1 -125 20 -125 19 0 20 -7 20 -90 l0 -90
175 0 175 0 0 730 0 730 -50 0 -50 0 0 45 0 45 -213 0 c-118 0 -217 -3 -220
-7z m513 -813 l0 -710 -155 0 -155 0 0 80 c0 47 4 80 10 80 6 0 10 -30 10 -70
l0 -70 135 0 135 0 0 690 0 690 -30 0 c-16 0 -30 5 -30 10 0 6 18 10 40 10
l40 0 0 -710z"/>
<path d="M8040 1965 l0 -125 505 0 505 0 0 50 c0 43 3 50 20 50 19 0 20 -7 20
-110 l0 -110 -360 0 -360 0 0 -85 c0 -50 4 -85 10 -85 6 0 10 32 10 75 l0 75
360 0 360 0 0 130 0 130 -30 0 c-16 0 -30 5 -30 10 0 6 16 10 35 10 l35 0 0
-150 0 -150 -355 0 -355 0 0 -65 c0 -37 4 -65 10 -65 6 0 10 25 10 55 l0 55
360 0 360 0 0 170 0 170 -49 0 -50 0 -3 43 -3 42 -502 3 -503 2 0 -125z"/>
<path d="M9187 2083 c-4 -3 -7 -60 -7 -125 l0 -118 504 0 505 0 3 47 c2 36 7
49 21 51 15 3 17 -7 17 -107 l0 -111 -355 0 -355 0 0 -85 c0 -50 4 -85 10 -85
6 0 10 32 10 75 l0 75 354 0 354 0 4 71 c2 39 1 98 0 130 -4 58 -4 59 -33 59
-18 0 -28 4 -24 10 3 6 22 10 41 10 l34 0 0 -150 0 -150 -360 0 -360 0 0 -65
c0 -37 4 -65 10 -65 6 0 10 25 10 55 l0 55 360 0 360 0 0 170 0 170 -50 0 -50
0 0 45 0 45 -498 0 c-274 0 -502 -3 -505 -7z"/>
<path d="M10477 2083 c-4 -3 -7 -60 -7 -125 l0 -118 435 0 435 0 0 50 c0 43 3
50 20 50 19 0 20 -7 20 -110 l0 -110 -360 0 -360 0 0 -365 c0 -237 4 -365 10
-365 10 0 11 66 11 498 l-1 212 360 0 360 0 0 130 0 130 -30 0 c-16 0 -30 5
-30 10 0 6 18 10 40 10 l40 0 0 -150 0 -150 -360 0 -360 0 0 -345 c0 -223 4
-345 10 -345 6 0 10 118 10 335 l0 335 360 0 360 0 0 170 0 170 -50 0 -50 0 0
45 0 45 -428 0 c-236 0 -432 -3 -435 -7z"/>
<path d="M11767 2083 c-4 -3 -7 -60 -7 -125 l0 -118 365 0 365 0 0 51 c0 43 3
50 18 47 13 -2 18 -15 20 -56 4 -75 22 -64 22 13 l0 65 -30 0 c-16 0 -30 5
-30 10 0 6 16 10 35 10 l35 0 0 -75 c0 -43 4 -75 10 -75 6 0 10 35 10 85 l0
85 -44 0 -45 0 -3 43 -3 42 -356 3 c-195 1 -358 -1 -362 -5z"/>
<path d="M12770 1965 l0 -125 430 0 430 0 0 50 c0 43 3 50 20 50 18 0 20 -7
20 -55 0 -30 5 -55 10 -55 6 0 10 28 10 65 l0 65 -30 0 c-16 0 -30 5 -30 10 0
6 18 10 40 10 l40 0 0 -75 c0 -43 4 -75 10 -75 6 0 10 35 10 85 l0 85 -50 0
-50 0 0 45 0 45 -430 0 -430 0 0 -125z"/>
<path d="M13917 2084 c-4 -4 -7 -61 -7 -126 l0 -118 150 0 150 0 0 51 c0 43 3
50 18 47 13 -3 17 -15 18 -58 0 -30 1 -117 2 -192 1 -84 6 -138 12 -138 6 0
10 75 10 205 l0 205 -30 0 c-16 0 -30 5 -30 10 0 6 16 10 35 10 l35 0 0 -215
c0 -129 4 -215 9 -215 11 0 18 228 13 368 l-4 82 -43 0 -44 0 -3 43 -3 42
-141 3 c-77 1 -143 -1 -147 -4z"/>
<path d="M14630 1965 l0 -125 145 0 145 0 0 50 c0 43 3 50 20 50 20 0 20 -7
20 -670 l0 -670 -115 0 -115 0 0 60 0 60 95 0 95 0 0 125 0 125 -145 0 -145 0
0 -125 0 -125 25 0 c25 0 25 -1 25 -90 l0 -90 170 0 170 0 0 730 0 730 -50 0
-50 0 0 45 0 45 -145 0 -145 0 0 -125z m370 -695 l0 -710 -150 0 -150 0 2 83
2 82 3 -72 4 -73 134 0 135 0 0 690 0 690 -30 0 c-16 0 -30 5 -30 10 0 6 18
10 40 10 l40 0 0 -710z"/>
<path d="M15207 2083 c-4 -3 -7 -60 -7 -125 l0 -118 359 0 360 0 3 48 c3 39 6
47 23 47 17 0 20 -8 23 -52 4 -76 22 -66 22 12 l0 65 -36 0 c-21 0 -33 4 -29
10 3 6 22 10 41 10 l34 0 0 -75 c0 -43 4 -75 10 -75 6 0 10 35 10 85 l0 85
-50 0 -50 0 0 45 0 45 -353 0 c-195 0 -357 -3 -360 -7z"/>
<path d="M160 1685 l0 -125 145 0 145 0 0 125 0 125 -145 0 -145 0 0 -125z"/>
<path d="M877 1804 c-4 -4 -7 -25 -7 -46 l0 -38 -190 0 -190 0 0 -85 c0 -50 4
-85 10 -85 6 0 10 32 10 75 l0 75 180 0 c113 0 180 -4 180 -10 0 -6 -63 -10
-170 -10 l-170 0 0 -65 c0 -37 4 -65 10 -65 6 0 10 25 10 55 l0 55 160 0 160
0 0 -50 0 -50 150 0 150 0 0 51 c0 43 3 50 18 47 15 -3 17 -17 19 -111 l2
-107 -74 0 -75 0 0 -140 0 -140 -285 0 -285 0 0 -280 0 -280 -115 0 -115 0 0
60 0 60 95 0 95 0 0 125 0 125 -145 0 -145 0 0 -125 c0 -118 1 -125 20 -125
19 0 20 -7 20 -90 l0 -90 175 0 175 0 0 280 0 280 285 0 285 0 0 140 0 140 69
0 70 0 3 90 c2 49 2 125 0 170 l-4 80 -43 0 -44 0 -3 43 -3 42 -141 3 c-77 1
-143 -1 -147 -4z m363 -254 l0 -150 -70 0 -70 0 0 -140 0 -140 -285 0 -285 0
0 -280 0 -280 -155 0 -155 0 0 80 c0 47 4 80 10 80 6 0 10 -30 10 -70 l0 -70
135 0 135 0 0 280 0 280 285 0 285 0 1 68 c1 37 0 100 -1 140 l-2 72 76 0 76
0 0 130 0 130 -30 0 c-16 0 -30 5 -30 10 0 6 16 10 35 10 l35 0 0 -150z"/>
<path d="M1307 1804 c-4 -4 -7 -61 -7 -126 l0 -118 150 0 151 0 -3 123 -3 122
-141 3 c-77 1 -143 -1 -147 -4z"/>
<path d="M2020 1765 l0 -45 -190 0 -190 0 0 -85 c0 -50 4 -85 10 -85 6 0 10
32 10 75 l0 75 180 0 c113 0 180 -4 180 -10 0 -6 -65 -10 -175 -10 l-175 0 0
-65 c0 -37 4 -65 10 -65 6 0 10 25 10 55 l0 55 165 0 165 0 0 -50 0 -50 145 0
145 0 0 50 c0 43 3 50 20 50 20 0 20 -7 20 -530 l0 -530 -115 0 -115 0 0 60 0
60 95 0 95 0 0 125 0 125 -145 0 -145 0 0 -125 0 -125 25 0 c25 0 25 -1 25
-90 l0 -90 170 0 170 0 0 590 0 590 -50 0 -50 0 0 45 0 45 -145 0 -145 0 0
-45z m370 -635 l0 -570 -150 0 -150 0 2 83 2 82 3 -72 4 -73 134 0 135 0 0 65
c0 36 1 259 1 495 0 237 -1 455 -1 485 0 54 0 55 -30 55 -16 0 -30 5 -30 10 0
6 18 10 40 10 l40 0 0 -570z"/>
<path d="M2450 1685 l0 -125 145 0 145 0 0 125 0 125 -145 0 -145 0 0 -125z"/>
<path d="M3170 1765 l0 -45 -195 0 -195 0 0 -85 c0 -50 4 -85 10 -85 6 0 10
32 10 75 l0 75 185 0 c117 0 185 -4 185 -10 0 -6 -65 -10 -175 -10 l-175 0 0
-65 c0 -37 4 -65 10 -65 6 0 10 25 10 55 l0 55 165 0 165 0 0 -50 0 -50 145 0
145 0 0 50 c0 43 3 50 20 50 19 0 20 -7 20 -110 l0 -110 -70 0 -70 0 0 -85 c0
-50 4 -85 10 -85 6 0 10 32 10 75 l0 75 70 0 70 0 0 130 0 130 -30 0 c-16 0
-30 5 -30 10 0 6 16 10 35 10 l35 0 0 -150 0 -150 -70 0 -70 0 0 -65 c0 -37 4
-65 10 -65 6 0 10 25 10 55 l0 55 75 0 75 0 0 170 0 170 -50 0 -50 0 0 45 0
45 -145 0 -145 0 0 -45z"/>
<path d="M3600 1685 l0 -125 145 0 145 0 0 125 0 125 -145 0 -145 0 0 -125z"/>
<path d="M4747 1803 c-4 -3 -7 -60 -7 -125 l0 -118 145 0 145 0 0 125 0 125
-138 0 c-76 0 -142 -3 -145 -7z"/>
<path d="M5460 1765 l0 -45 -190 0 -190 0 0 -85 c0 -50 4 -85 10 -85 6 0 10
32 10 75 l0 75 180 0 c113 0 180 -4 180 -10 0 -6 -65 -10 -175 -10 l-175 0 0
-65 c0 -37 4 -65 10 -65 6 0 10 25 10 55 l0 55 165 0 165 0 0 -50 0 -50 145 0
145 0 0 50 c0 43 3 50 20 50 20 0 20 -7 20 -530 l0 -530 -115 0 -115 0 0 60 0
60 95 0 95 0 0 125 0 125 -145 0 -145 0 0 -125 0 -125 25 0 c25 0 25 -1 25
-90 l0 -90 170 0 170 0 0 590 0 590 -50 0 -50 0 0 45 0 45 -145 0 -145 0 0
-45z m370 -635 l0 -570 -150 0 -150 0 2 83 2 82 3 -72 4 -73 134 0 135 0 0
550 0 550 -30 0 c-16 0 -30 5 -30 10 0 6 18 10 40 10 l40 0 0 -570z"/>
<path d="M6467 1803 c-4 -3 -7 -60 -7 -125 l0 -118 290 0 290 0 0 50 c0 43 3
50 20 50 18 0 20 -7 20 -55 0 -30 5 -55 10 -55 6 0 10 28 10 65 l0 65 -30 0
c-16 0 -30 5 -30 10 0 6 18 10 40 10 l40 0 0 -75 c0 -43 4 -75 10 -75 6 0 10
35 10 85 l0 85 -50 0 -50 0 0 45 0 45 -283 0 c-156 0 -287 -3 -290 -7z"/>
<path d="M7327 1803 c-4 -3 -7 -60 -7 -125 l0 -118 290 0 290 0 0 125 0 125
-283 0 c-156 0 -287 -3 -290 -7z"/>
<path d="M8040 1685 l0 -125 145 0 145 0 0 125 0 125 -145 0 -145 0 0 -125z"/>
<path d="M9187 1804 c-4 -4 -7 -61 -7 -126 l0 -118 150 0 151 0 -3 123 -3 122
-141 3 c-77 1 -143 -1 -147 -4z"/>
<path d="M10330 1685 l0 -125 145 0 145 0 0 125 0 125 -145 0 -145 0 0 -125z"/>
<path d="M11620 1685 l0 -125 145 0 145 0 0 125 0 125 -145 0 -145 0 0 -125z"/>
<path d="M12340 1765 l0 -45 -195 0 -195 0 0 -85 c0 -50 4 -85 10 -85 6 0 10
32 10 75 l0 75 185 0 c117 0 185 -4 185 -10 0 -6 -65 -10 -175 -10 l-175 0 0
-65 c0 -37 4 -65 10 -65 6 0 10 25 10 55 l0 55 165 0 165 0 0 -50 0 -50 145 0
145 0 0 50 c0 43 3 50 20 50 20 0 20 -7 20 -530 l0 -530 -115 0 -115 0 0 60 0
60 95 0 95 0 0 125 0 125 -145 0 -145 0 0 -125 c0 -118 1 -125 20 -125 19 0
20 -7 20 -90 l0 -90 175 0 175 0 0 590 0 590 -50 0 -50 0 0 45 0 45 -145 0
-145 0 0 -45z m360 -635 l0 -570 -150 0 -150 0 0 80 c0 47 4 80 10 80 6 0 10
-30 10 -70 l0 -70 135 0 135 0 0 550 0 550 -30 0 c-16 0 -30 5 -30 10 0 6 16
10 35 10 l35 0 0 -570z"/>
<path d="M12770 1685 l0 -125 145 0 145 0 0 125 0 125 -145 0 -145 0 0 -125z"/>
<path d="M13487 1804 c-4 -4 -7 -25 -7 -46 l0 -38 -190 0 -190 0 0 -85 c0 -50
4 -85 10 -85 6 0 10 32 10 75 l0 75 180 0 c113 0 180 -4 180 -10 0 -6 -65 -10
-175 -10 l-175 0 0 -65 c0 -51 3 -65 15 -65 12 0 15 13 15 55 l0 55 160 0 160
0 0 -50 0 -50 150 0 150 0 0 51 c0 43 3 50 18 47 15 -3 17 -17 19 -111 l2
-107 -74 0 -75 0 0 -85 c0 -50 4 -85 10 -85 6 0 10 32 10 75 l0 75 75 0 75 0
0 130 0 130 -30 0 c-16 0 -30 5 -30 10 0 6 16 10 35 10 l35 0 0 -150 0 -150
-70 0 -70 0 0 -65 c0 -37 4 -65 10 -65 6 0 10 25 10 55 l0 55 69 0 70 0 3 90
c2 49 2 125 0 170 l-4 80 -43 0 -44 0 -3 43 -3 42 -141 3 c-77 1 -143 -1 -147
-4z"/>
<path d="M13917 1804 c-4 -4 -7 -61 -7 -126 l0 -118 150 0 151 0 -3 123 -3
122 -141 3 c-77 1 -143 -1 -147 -4z"/>
<path d="M14630 1685 l0 -125 145 0 145 0 0 125 0 125 -145 0 -145 0 0 -125z"/>
<path d="M15060 1685 l0 -125 145 0 145 0 0 125 0 125 -145 0 -145 0 0 -125z"/>
<path d="M15777 1803 c-4 -3 -7 -24 -7 -45 l0 -38 -190 0 -190 0 0 -85 c0 -50
4 -85 10 -85 6 0 10 32 10 75 l0 75 180 0 c113 0 180 -4 180 -10 0 -6 -63 -10
-170 -10 l-170 0 0 -65 c0 -37 4 -65 10 -65 6 0 10 25 10 55 l0 55 160 0 160
0 0 -50 0 -50 150 0 150 0 0 50 c0 43 3 50 20 50 20 0 20 -7 20 -530 l0 -530
-115 0 -115 0 0 60 0 60 95 0 95 0 0 125 0 126 -147 -3 -148 -3 -3 -122 -3
-123 26 0 c25 0 25 0 25 -90 l0 -90 175 0 175 0 0 590 0 590 -50 0 -50 0 0 45
0 45 -143 0 c-79 0 -147 -3 -150 -7z m363 -673 l0 -570 -150 0 -150 0 0 80 c0
47 4 80 10 80 6 0 10 -30 10 -70 l0 -70 135 0 135 0 0 550 0 550 -30 0 c-16 0
-30 5 -30 10 0 6 16 10 35 10 l35 0 0 -570z"/>
<path d="M160 1405 l0 -125 430 0 430 0 0 125 0 125 -430 0 -430 0 0 -125z"/>
<path d="M1307 1523 c-4 -3 -7 -60 -7 -125 l0 -118 505 0 505 0 0 125 0 125
-498 0 c-274 0 -502 -3 -505 -7z"/>
<path d="M2450 1405 l0 -125 435 0 436 0 -3 123 -3 122 -432 3 -433 2 0 -125z"/>
<path d="M3600 1405 c0 -118 1 -125 20 -125 19 0 20 -7 20 -90 l0 -90 335 0
335 0 0 -50 0 -50 145 0 145 0 0 125 0 126 -142 -3 -143 -3 -3 -42 -3 -43
-305 0 -304 0 0 60 0 60 449 0 450 0 3 48 c3 39 6 47 23 47 20 0 20 -7 22
-387 l2 -388 -475 0 -474 0 0 60 0 60 450 0 450 0 0 125 0 125 -500 0 -500 0
0 -125 c0 -118 1 -125 20 -125 19 0 20 -7 20 -90 l0 -90 530 0 530 0 0 85 c1
47 1 216 1 375 0 160 0 324 -1 365 l0 75 -50 0 -50 0 0 45 0 45 -500 0 -500 0
0 -125z m1080 -415 l0 -430 -510 0 -510 0 0 80 c0 47 4 80 10 80 6 0 10 -30
10 -70 l0 -70 495 0 495 0 0 410 0 410 -36 0 c-21 0 -33 4 -29 10 3 6 22 10
41 10 l34 0 0 -430z m-1000 220 l0 -70 315 0 c203 0 315 -4 315 -10 0 -6 -115
-10 -325 -10 l-325 0 0 80 c0 47 4 80 10 80 6 0 10 -30 10 -70z"/>
<path d="M4747 1523 c-4 -3 -7 -60 -7 -125 l0 -118 505 0 505 0 0 125 0 125
-498 0 c-274 0 -502 -3 -505 -7z"/>
<path d="M6467 1523 c-4 -3 -7 -60 -7 -125 l0 -118 145 0 145 0 0 125 0 125
-138 0 c-76 0 -142 -3 -145 -7z"/>
<path d="M6897 1523 c-4 -3 -7 -24 -7 -45 l0 -38 -50 0 -50 0 0 -420 0 -420
-110 0 -110 0 0 60 0 60 90 0 90 0 0 125 0 126 -142 -3 -143 -3 -3 -122 -3
-123 26 0 c25 0 25 0 25 -90 l0 -90 170 0 170 0 0 420 c0 413 0 420 20 420 17
0 20 -7 20 -50 0 -47 2 -50 25 -50 25 0 25 -1 25 -90 l0 -90 45 0 45 0 0 -50
c0 -47 2 -50 25 -50 25 0 25 -1 25 -90 l0 -90 175 0 175 0 0 140 0 140 70 0
70 0 0 140 c0 133 1 140 20 140 17 0 20 -7 20 -50 l0 -50 145 0 145 0 0 125 0
125 -145 0 -145 0 0 -45 0 -45 -50 0 -50 0 0 -140 0 -140 -70 0 -70 0 0 -140
0 -140 -115 0 -115 0 0 60 0 60 95 0 96 0 -3 123 -3 122 -145 0 -145 0 -3 -42
c-2 -29 -8 -43 -18 -43 -11 0 -14 14 -14 60 l0 60 235 0 235 0 0 125 0 125
-283 0 c-156 0 -287 -3 -290 -7z m-7 -113 c0 -5 -13 -10 -30 -10 l-30 0 0
-420 0 -420 -150 0 -150 0 2 83 2 82 3 -72 4 -73 134 0 135 0 0 68 c1 37 1
226 1 420 l0 352 39 0 c22 0 40 -4 40 -10z m720 0 c0 -5 -13 -10 -30 -10 l-30
0 0 -140 0 -140 -75 0 -75 0 0 -140 0 -140 -150 0 -150 0 0 80 c0 47 4 80 10
80 6 0 10 -30 10 -70 l0 -70 135 0 135 0 0 140 0 140 70 0 70 0 0 140 0 140
40 0 c22 0 40 -4 40 -10z m-610 -270 c17 0 30 -4 30 -10 0 -5 -16 -10 -35 -10
l-35 0 2 83 2 82 3 -72 4 -73 29 0z"/>
<path d="M8040 1405 l0 -125 360 0 360 0 0 50 c0 43 3 50 20 50 19 0 20 -7 20
-110 l0 -110 -215 0 -215 0 0 -85 c0 -50 4 -85 10 -85 6 0 10 32 10 75 l0 75
215 0 215 0 0 130 0 130 -30 0 c-16 0 -30 5 -30 10 0 6 18 10 40 10 l40 0 0
-150 0 -150 -215 0 -215 0 0 -65 c0 -37 4 -65 10 -65 6 0 10 25 10 55 l0 55
215 0 215 0 0 170 0 170 -50 0 -50 0 0 45 0 45 -360 0 -360 0 0 -125z"/>
<path d="M9187 1523 c-4 -3 -7 -60 -7 -125 l0 -118 25 0 c25 0 25 -1 25 -90
l0 -90 335 0 335 0 0 -50 0 -50 145 0 145 0 0 125 0 125 -145 0 -145 0 0 -45
0 -45 -305 0 -305 0 0 60 0 60 449 0 450 0 3 47 c2 36 7 49 21 51 16 3 17 -21
17 -387 l0 -391 -470 0 -470 0 0 60 0 60 450 0 450 0 0 125 0 125 -502 -2
-503 -3 -3 -122 -3 -123 26 0 c25 0 25 0 25 -90 l0 -90 530 0 530 0 0 450 0
450 -50 0 -50 0 0 45 0 45 -498 0 c-274 0 -502 -3 -505 -7z m1083 -533 l0
-430 -510 0 -510 0 0 80 c0 47 4 80 10 80 6 0 10 -30 10 -70 l0 -70 490 0 490
0 0 65 c1 36 1 196 1 355 0 160 0 315 -1 345 0 55 0 55 -31 55 -17 0 -28 4
-24 10 3 6 22 10 41 10 l34 0 0 -430z m-1000 220 l0 -70 315 0 c203 0 315 -4
315 -10 0 -6 -115 -10 -325 -10 l-325 0 0 80 c0 47 4 80 10 80 6 0 10 -30 10
-70z"/>
<path d="M10330 1405 l0 -125 145 0 145 0 0 125 0 125 -145 0 -145 0 0 -125z"/>
<path d="M11050 1405 l0 -125 214 0 215 0 3 47 c2 36 7 49 21 51 16 3 17 -14
17 -247 l0 -251 -70 0 -70 0 0 -140 0 -140 -400 0 -400 0 0 60 0 60 380 0 380
0 0 125 0 125 -432 -2 -433 -3 -3 -42 c-3 -35 -7 -43 -23 -43 -17 0 -19 7 -19
60 l0 60 95 0 95 0 0 125 0 125 -145 0 -145 0 0 -125 0 -125 25 0 c25 0 25 -1
25 -90 l0 -90 45 0 45 0 0 -50 c0 -47 2 -50 25 -50 25 0 25 -1 25 -90 l0 -90
460 0 460 0 0 140 0 140 70 0 70 0 0 310 0 310 -50 0 -50 0 0 45 0 45 -215 0
-215 0 0 -125z m510 -275 l0 -290 -70 0 -70 0 0 -140 0 -140 -440 0 -440 0 0
80 c0 47 4 80 10 80 6 0 10 -30 10 -70 l0 -70 420 0 420 0 0 140 0 140 70 0
70 0 0 65 c1 36 1 133 1 215 0 289 3 260 -32 260 -17 0 -28 4 -24 10 3 6 22
10 41 10 l34 0 0 -290z m-1120 -270 c17 0 30 -4 30 -10 0 -5 -16 -10 -35 -10
l-35 0 2 83 2 82 3 -72 4 -73 29 0z"/>
<path d="M11620 1405 l0 -125 505 0 505 0 0 125 0 125 -505 0 -505 0 0 -125z"/>
<path d="M12770 1405 l0 -125 430 0 430 0 0 125 0 125 -430 0 -430 0 0 -125z"/>
<path d="M13917 1523 c-4 -3 -7 -60 -7 -125 l0 -118 505 0 505 0 0 125 0 125
-498 0 c-274 0 -502 -3 -505 -7z"/>
<path d="M15060 1405 l0 -125 505 0 505 0 0 125 0 125 -505 0 -505 0 0 -125z"/>
<path d="M160 1125 l0 -125 145 0 145 0 0 125 0 125 -145 0 -145 0 0 -125z"/>
<path d="M1307 1244 c-4 -4 -7 -61 -7 -126 l0 -118 150 0 151 0 -3 123 -3 122
-141 3 c-77 1 -143 -1 -147 -4z"/>
<path d="M2020 1205 l0 -45 -190 0 -190 0 -1 -72 c0 -40 0 -166 0 -280 l0
-208 -114 0 -115 0 0 60 0 60 95 0 96 0 -3 123 -3 122 -145 0 -145 0 -3 -122
-3 -123 26 0 c25 0 25 0 25 -90 l0 -90 170 0 170 0 1 88 c0 48 0 174 0 280 l0
192 164 0 165 0 0 -50 0 -50 145 0 145 0 0 125 0 125 -145 0 -145 0 0 -45z m0
-75 c0 -6 -65 -10 -175 -10 l-175 0 0 -280 0 -280 -150 0 -150 0 0 80 c0 47 4
80 10 80 6 0 10 -30 10 -70 l0 -70 135 0 135 0 0 280 0 280 180 0 c113 0 180
-4 180 -10z"/>
<path d="M2450 1125 l0 -125 145 0 145 0 0 125 0 125 -145 0 -145 0 0 -125z"/>
<path d="M3170 1205 l0 -45 -195 0 -195 0 0 -280 0 -280 -115 0 -115 0 0 60 0
60 95 0 95 0 0 125 0 125 -145 0 -145 0 0 -125 0 -125 25 0 c25 0 25 -1 25
-90 l0 -90 170 0 170 0 0 280 0 280 165 0 165 0 0 -50 0 -50 145 0 145 0 0 50
c0 43 3 50 20 50 19 0 20 -7 20 -250 l0 -250 -115 0 -115 0 0 60 0 60 95 0 95
0 0 125 0 125 -145 0 -145 0 0 -125 c0 -118 1 -125 20 -125 19 0 20 -7 20 -90
l0 -90 175 0 175 0 0 310 0 310 -50 0 -50 0 0 45 0 45 -145 0 -145 0 0 -45z
m0 -75 c0 -6 -65 -10 -175 -10 l-175 0 0 -280 0 -280 -150 0 -150 0 2 83 2 82
3 -72 4 -73 134 0 135 0 1 68 c0 37 0 163 0 280 l-1 212 185 0 c117 0 185 -4
185 -10z m360 -280 l0 -290 -150 0 -150 0 0 80 c0 47 4 80 10 80 6 0 10 -30
10 -70 l0 -70 135 0 135 0 0 270 0 270 -30 0 c-16 0 -30 5 -30 10 0 6 16 10
35 10 l35 0 0 -290z"/>
<path d="M4747 1243 c-4 -3 -7 -60 -7 -125 l0 -118 145 0 145 0 0 125 0 125
-138 0 c-76 0 -142 -3 -145 -7z"/>
<path d="M5460 1205 l0 -45 -190 0 -190 0 -1 -72 c0 -40 0 -166 0 -280 l0
-208 -114 0 -115 0 0 60 0 60 90 0 90 0 0 125 0 126 -142 -3 -143 -3 -3 -122
-3 -123 26 0 c25 0 25 0 25 -90 l0 -90 170 0 170 0 1 88 c0 48 0 174 0 280 l0
192 164 0 165 0 0 -50 0 -50 145 0 145 0 0 125 0 125 -145 0 -145 0 0 -45z m0
-75 c0 -6 -65 -10 -175 -10 l-175 0 0 -280 0 -280 -150 0 -150 0 2 83 2 82 3
-72 4 -73 139 0 140 0 0 280 0 280 180 0 c113 0 180 -4 180 -10z"/>
<path d="M6467 1243 c-4 -3 -7 -60 -7 -125 l0 -118 145 0 145 0 0 125 0 125
-138 0 c-76 0 -142 -3 -145 -7z"/>
<path d="M7610 1125 l0 -125 145 0 145 0 0 125 0 125 -145 0 -145 0 0 -125z"/>
<path d="M8040 1125 l0 -125 145 0 145 0 0 125 0 125 -145 0 -145 0 0 -125z"/>
<path d="M11190 1125 l0 -125 145 0 145 0 0 125 0 125 -145 0 -145 0 0 -125z"/>
<path d="M11620 1125 l0 -125 145 0 145 0 0 125 0 125 -145 0 -145 0 0 -125z"/>
<path d="M12340 1205 l0 -45 -195 0 -195 0 0 -280 0 -280 -115 0 -115 0 0 60
0 60 95 0 95 0 0 125 0 125 -145 0 -145 0 0 -125 0 -125 25 0 c25 0 25 -1 25
-90 l0 -90 170 0 170 0 0 280 0 280 165 0 165 0 0 -50 0 -50 145 0 145 0 0
125 0 125 -145 0 -145 0 0 -45z m0 -75 c0 -6 -65 -10 -175 -10 l-175 0 0 -280
0 -280 -150 0 -150 0 2 83 2 82 3 -72 4 -73 134 0 135 0 1 68 c0 37 0 163 0
280 l-1 212 185 0 c117 0 185 -4 185 -10z"/>
<path d="M12770 1125 l0 -125 145 0 145 0 0 125 0 125 -145 0 -145 0 0 -125z"/>
<path d="M13487 1244 c-4 -4 -7 -25 -7 -46 l0 -38 -190 0 -190 0 0 -280 0
-280 -115 0 -115 0 0 60 0 60 95 0 95 0 0 125 0 125 -145 0 -145 0 0 -125 c0
-118 1 -125 20 -125 19 0 20 -7 20 -90 l0 -90 175 0 175 0 0 280 0 280 160 0
160 0 0 -50 0 -50 150 0 150 0 0 51 c0 43 3 50 18 47 16 -3 17 -24 19 -251 l2
-247 -115 0 -114 0 0 60 0 60 95 0 96 0 -3 123 -3 122 -145 0 -145 0 -3 -122
-3 -123 26 0 c25 0 25 0 25 -90 l0 -90 170 0 170 0 0 85 c1 47 1 153 1 235 0
83 0 184 -1 225 l0 75 -44 0 -45 0 -3 43 -3 42 -141 3 c-77 1 -143 -1 -147 -4z
m-7 -114 c0 -6 -65 -10 -175 -10 l-175 0 0 -280 0 -280 -150 0 -150 0 0 80 c0
47 4 80 10 80 6 0 10 -30 10 -70 l0 -70 135 0 135 0 0 280 0 280 180 0 c113 0
180 -4 180 -10z m370 -280 l0 -290 -150 0 -150 0 2 83 2 82 3 -72 4 -73 139 0
140 0 0 270 0 270 -30 0 c-16 0 -30 5 -30 10 0 6 16 10 35 10 l35 0 0 -290z"/>
<path d="M13917 1244 c-4 -4 -7 -61 -7 -126 l0 -118 150 0 151 0 -3 123 -3
122 -141 3 c-77 1 -143 -1 -147 -4z"/>
<path d="M14630 1205 l0 -45 -190 0 -190 0 -1 -72 c0 -40 0 -166 0 -280 l0
-208 -114 0 -115 0 0 60 0 60 95 0 96 0 -3 123 -3 122 -145 0 -145 0 -3 -122
-3 -123 26 0 c25 0 25 0 25 -90 l0 -90 170 0 170 0 1 88 c0 48 0 174 0 280 l0
192 164 0 165 0 0 -50 0 -50 145 0 145 0 0 125 0 125 -145 0 -145 0 0 -45z m0
-75 c0 -6 -65 -10 -175 -10 l-175 0 0 -280 0 -280 -150 0 -150 0 2 83 2 82 3
-72 4 -73 139 0 140 0 0 280 0 280 180 0 c113 0 180 -4 180 -10z"/>
<path d="M15060 1125 l0 -125 145 0 145 0 0 125 0 125 -145 0 -145 0 0 -125z"/>
<path d="M15777 1243 c-4 -3 -7 -24 -7 -45 l0 -38 -190 0 -190 0 0 -280 0
-280 -115 0 -115 0 0 60 0 60 95 0 95 0 0 125 0 125 -145 0 -145 0 0 -125 0
-125 25 0 c25 0 25 -1 25 -90 l0 -90 170 0 170 0 0 280 0 280 160 0 160 0 0
-50 0 -50 150 0 150 0 0 125 0 125 -143 0 c-79 0 -147 -3 -150 -7z m-7 -113
c0 -6 -63 -10 -170 -10 l-170 0 0 -280 0 -280 -150 0 -150 0 2 83 2 82 3 -72
4 -73 134 0 135 0 0 280 0 280 180 0 c113 0 180 -4 180 -10z"/>
<path d="M8040 845 c0 -118 1 -125 20 -125 19 0 20 -7 20 -90 l0 -90 535 0
535 0 0 170 0 170 -49 0 -50 0 -3 43 -3 42 -502 3 -503 2 0 -125z m1080 -135
l0 -150 -510 0 -510 0 0 80 c0 47 4 80 10 80 6 0 10 -30 10 -70 l0 -70 495 0
495 0 0 130 0 130 -30 0 c-16 0 -30 5 -30 10 0 6 16 10 35 10 l35 0 0 -150z
m-30 0 l0 -110 -475 0 -475 0 0 60 0 60 455 0 455 0 0 50 c0 43 3 50 20 50 19
0 20 -7 20 -110z"/>
</g>
</svg>
